{"glyphs":{":":{"x_min":0,"x_max":292,"ha":292,"o":"m 59 385 l 59 557 l 232 557 l 232 385 z m 59 0 l 59 172 l 232 172 l 232 0 z"},"$":{"x_min":0,"x_max":536,"ha":536,"o":"m 290 124 q 322 131 339 151 q 355 172 355 206 q 355 233 340 252 q 325 271 290 286 z m 238 478 l 238 622 q 209 617 194 599 q 178 582 178 554 q 178 531 194 511 q 209 492 238 478 z m 217 -91 l 217 6 q 126 14 79 73 q 32 132 32 237 l 32 240 l 169 240 q 169 237 168 231 q 168 226 168 223 q 168 179 184 155 q 200 130 234 123 l 234 308 q 140 342 92 400 q 44 458 44 538 q 44 621 90 674 q 135 727 217 737 l 217 801 l 309 801 l 309 738 q 396 728 442 676 q 488 623 490 530 l 356 530 q 353 577 338 599 q 323 621 295 621 l 293 621 l 293 453 q 404 412 451 357 q 498 302 498 215 q 498 123 450 70 q 402 17 309 6 l 309 -91 z"},"?":{"x_min":0,"x_max":493,"ha":493,"o":"m 322 171 l 322 0 l 151 0 l 151 171 z m 181 525 l 27 525 l 27 530 q 27 639 86 697 q 145 755 256 755 q 354 755 410 706 q 467 658 467 575 q 467 531 447 487 q 428 442 374 374 q 372 372 368 366 q 311 293 311 245 l 311 237 l 162 237 q 161 246 160 254 q 159 263 159 272 q 159 312 175 348 q 190 385 240 447 l 243 451 q 296 516 296 561 q 296 593 281 611 q 267 629 240 629 q 212 629 196 606 q 180 583 180 542 q 180 539 181 533 q 181 528 181 525 z"},"<":{"x_min":0,"x_max":833,"ha":833,"o":"m 704 458 l 313 298 l 704 138 l 704 -8 l 129 230 l 129 367 l 704 605 z"},"'":{"x_min":0,"x_max":192,"ha":192,"o":"m 159 703 l 159 428 l 33 428 l 33 703 z"},"=":{"x_min":0,"x_max":833,"ha":833,"o":"m 709 250 l 709 117 l 124 117 l 124 250 z m 709 480 l 709 347 l 124 347 l 124 480 z"},"a":{"x_min":0,"x_max":522,"ha":522,"o":"m 306 272 q 245 255 217 229 q 189 204 189 166 q 189 139 203 123 q 217 107 240 107 q 275 107 291 130 q 306 154 306 209 z m 326 0 l 317 52 q 287 21 252 5 q 216 -11 175 -11 q 108 -11 70 32 q 31 75 31 148 q 31 212 64 253 q 97 295 172 325 q 190 332 221 343 q 309 375 309 416 q 309 441 296 454 q 284 467 260 467 q 231 467 217 449 q 203 432 203 396 l 203 392 l 45 392 q 45 488 98 534 q 151 581 260 581 q 309 581 347 572 q 385 563 411 546 q 444 523 458 492 q 471 460 471 376 l 471 359 l 471 158 q 471 92 476 57 q 480 22 491 0 z"},"L":{"x_min":0,"x_max":465,"ha":465,"o":"m 448 0 l 61 0 l 61 752 l 237 752 l 237 152 l 448 152 z"},"3":{"x_min":0,"x_max":536,"ha":536,"o":"m 43 249 l 200 249 q 202 177 216 147 q 229 116 260 116 q 290 116 305 144 q 321 171 321 225 q 321 282 293 307 q 266 332 202 332 q 192 332 187 332 q 182 332 177 331 l 177 449 l 193 449 q 255 449 282 473 q 309 498 309 553 q 309 590 296 610 q 284 630 260 630 q 230 630 218 607 q 206 583 204 521 l 50 521 l 50 531 q 50 637 108 697 q 167 757 269 757 q 362 757 420 703 q 479 650 479 566 q 479 510 452 469 q 426 427 372 398 q 436 373 467 329 q 497 284 497 216 q 497 107 436 46 q 375 -15 266 -15 q 160 -15 101 48 q 42 112 42 227 q 42 230 42 238 q 43 246 43 249 z"},";":{"x_min":0,"x_max":292,"ha":292,"o":"m 60 385 l 60 557 l 232 557 l 232 385 z m 60 0 l 60 172 l 232 172 l 232 36 q 232 -62 192 -107 q 153 -151 61 -157 l 61 -96 q 106 -92 129 -68 q 153 -43 153 0 z"},"J":{"x_min":0,"x_max":486,"ha":486,"o":"m 10 253 l 172 253 q 172 158 180 137 q 189 116 212 116 q 231 116 239 130 q 247 143 247 187 l 247 752 l 423 752 l 423 257 q 423 173 417 132 q 411 91 397 65 q 375 24 331 3 q 287 -18 222 -18 q 107 -18 58 36 q 9 89 9 215 q 9 230 9 238 q 9 246 10 253 z"},"V":{"x_min":0,"x_max":560,"ha":560,"o":"m 176 0 l 8 752 l 194 752 l 259 357 q 263 331 269 287 q 274 244 280 194 l 281 203 q 294 321 300 356 l 366 752 l 552 752 l 381 0 z"},"\"":{"x_min":0,"x_max":370,"ha":370,"o":"m 337 703 l 337 428 l 210 428 l 210 703 z m 159 703 l 159 428 l 33 428 l 33 703 z"},"7":{"x_min":0,"x_max":536,"ha":536,"o":"m 133 0 q 146 132 194 281 q 242 431 324 595 l 45 595 l 45 743 l 485 743 l 485 615 q 416 492 370 335 q 324 178 306 0 z"},"S":{"x_min":0,"x_max":525,"ha":525,"o":"m 38 255 l 199 255 l 199 233 q 199 171 214 146 q 229 120 263 120 q 291 120 307 139 q 323 159 323 192 q 323 247 245 297 q 232 306 225 310 l 217 315 q 111 387 85 423 q 66 450 57 484 q 47 519 47 559 q 47 658 104 714 q 161 770 261 770 q 370 770 427 715 q 485 660 485 555 q 485 551 484 543 q 484 535 484 531 l 326 531 l 326 540 q 326 589 311 615 q 295 640 266 640 q 241 640 226 622 q 211 604 211 575 q 211 527 297 474 q 312 463 321 458 q 328 454 340 446 q 432 387 458 347 q 474 321 483 288 q 491 255 491 217 q 491 104 433 43 q 374 -18 265 -18 q 151 -18 94 40 q 36 99 36 214 q 36 221 36 229 q 37 237 38 255 z"},"}":{"x_min":0,"x_max":500,"ha":500,"o":"m 313 566 l 313 440 q 313 378 336 353 q 358 327 413 327 q 416 327 421 328 q 427 328 430 328 l 430 190 q 427 190 421 190 q 416 191 413 191 q 358 191 336 166 q 313 140 313 78 l 313 -48 q 313 -111 301 -139 q 289 -166 259 -181 q 237 -192 203 -197 q 168 -202 105 -202 l 59 -202 l 59 -64 q 63 -64 70 -64 q 77 -65 80 -65 q 123 -65 137 -50 q 152 -36 152 12 l 152 130 q 152 194 175 221 q 197 248 258 259 q 198 270 175 296 q 152 323 152 388 l 152 506 q 152 554 137 568 q 123 583 80 583 q 77 583 70 583 q 63 582 59 582 l 59 721 l 98 721 q 166 721 201 716 q 236 711 259 699 q 289 684 301 657 q 313 629 313 566 z"},"Z":{"x_min":0,"x_max":500,"ha":500,"o":"m 32 0 l 32 140 l 262 608 l 51 608 l 51 752 l 457 752 l 457 621 l 226 154 l 468 154 l 468 0 z"},"x":{"x_min":0,"x_max":427,"ha":427,"o":"m 5 0 l 133 282 l 12 565 l 167 565 l 215 411 l 263 565 l 419 565 l 298 284 l 425 0 l 265 0 l 215 159 l 165 0 z"},")":{"x_min":0,"x_max":336,"ha":336,"o":"m 35 -190 q 76 -66 97 53 q 117 172 117 287 q 117 407 95 523 q 74 640 30 753 l 152 753 q 210 640 238 523 q 266 407 266 281 q 266 163 240 47 q 213 -69 158 -190 z"},"&":{"x_min":0,"x_max":662,"ha":662,"o":"m 300 527 q 328 546 342 567 q 356 588 356 612 q 356 633 343 646 q 330 658 308 658 q 288 658 275 646 q 263 633 263 613 q 263 593 271 573 q 280 553 300 527 z m 361 153 l 251 327 q 225 302 213 276 q 200 250 200 221 q 200 177 225 149 q 250 121 290 121 q 305 121 323 129 q 340 137 361 153 z m 463 0 l 435 38 q 396 10 355 -4 q 313 -18 266 -18 q 167 -18 106 44 q 45 106 45 205 q 45 277 77 334 q 109 391 180 446 q 152 487 139 525 q 125 564 125 600 q 125 674 178 723 q 232 771 315 771 q 398 771 449 727 q 499 683 499 610 q 499 552 469 505 q 439 459 376 420 l 450 300 q 460 325 467 350 q 473 375 474 399 l 605 399 q 603 338 585 280 q 567 221 535 165 l 639 0 z"},"_":{"x_min":0,"x_max":500,"ha":500,"o":"m 500 -98 l 500 -236 l 0 -236 l 0 -98 z"},"v":{"x_min":0,"x_max":438,"ha":438,"o":"m 130 0 l 6 565 l 164 565 l 219 181 l 274 565 l 431 565 l 306 0 z"},"O":{"x_min":0,"x_max":596,"ha":596,"o":"m 370 308 l 370 444 q 370 569 354 598 q 338 628 297 628 q 256 628 241 598 q 225 567 225 444 l 225 308 q 225 186 241 155 q 256 124 298 124 q 339 124 354 154 q 370 185 370 308 z m 46 376 q 46 512 56 574 q 65 637 88 672 q 120 722 172 746 q 225 770 298 770 q 372 770 423 746 q 475 722 507 672 q 530 636 540 574 q 550 511 550 376 q 550 241 540 178 q 530 116 507 80 q 475 31 423 6 q 371 -18 298 -18 q 225 -18 172 6 q 120 31 88 80 q 65 115 56 178 q 46 240 46 376 z"},"(":{"x_min":0,"x_max":336,"ha":336,"o":"m 306 -190 l 184 -190 q 129 -69 103 47 q 76 163 76 281 q 76 407 104 523 q 132 640 190 753 l 312 753 q 269 640 247 523 q 225 407 225 287 q 225 171 245 52 q 266 -68 306 -190 z"},"C":{"x_min":0,"x_max":596,"ha":596,"o":"m 369 291 l 542 291 q 542 284 543 276 q 543 269 543 253 q 543 115 483 49 q 422 -18 298 -18 q 225 -18 172 6 q 120 31 88 80 q 65 115 56 178 q 46 240 46 376 q 46 512 56 574 q 65 637 88 672 q 120 721 171 745 q 223 770 295 770 q 418 770 480 701 q 542 633 542 496 l 542 489 l 371 489 q 370 566 354 597 q 337 628 298 628 q 255 628 240 590 q 224 552 224 390 l 224 376 q 224 202 240 162 q 255 123 298 123 q 337 123 353 152 q 369 180 369 258 z"},"W":{"x_min":0,"x_max":809,"ha":809,"o":"m 166 0 l 16 752 l 193 752 l 233 386 q 240 326 244 286 q 248 245 250 213 q 253 260 258 304 q 263 347 269 387 l 325 752 l 502 752 l 556 388 q 560 366 568 286 q 574 240 577 213 q 583 281 586 319 q 590 358 593 384 l 633 752 l 810 752 l 661 0 l 471 0 l 430 311 q 425 352 421 397 q 417 442 413 491 q 409 435 405 392 q 401 348 396 310 l 357 0 z"},"A":{"x_min":0,"x_max":550,"ha":550,"o":"m 224 280 l 325 280 l 275 608 z m 7 0 l 171 752 l 380 752 l 542 0 l 366 0 l 344 144 l 206 144 l 184 0 z"},"f":{"x_min":0,"x_max":328,"ha":328,"o":"m 80 0 l 80 445 l 16 445 l 16 565 l 80 565 q 80 570 80 580 q 79 589 79 593 q 79 682 117 718 q 155 755 246 755 q 260 755 275 754 q 290 753 306 752 l 306 638 q 302 639 298 639 q 294 639 287 639 q 260 639 248 626 q 237 614 237 584 q 237 577 237 573 q 237 569 238 565 l 306 565 l 306 445 l 238 445 l 238 0 z"},"Q":{"x_min":0,"x_max":596,"ha":596,"o":"m 369 308 l 369 444 q 369 569 353 598 q 337 628 296 628 q 255 628 240 598 q 224 567 224 444 l 224 308 q 224 186 240 155 q 255 124 297 124 q 338 124 354 154 q 369 185 369 308 z m 333 -17 q 319 -19 306 -19 q 293 -20 281 -20 q 226 -20 184 -4 q 142 12 113 44 q 76 84 60 148 q 45 211 45 376 q 45 512 54 575 q 64 638 87 672 q 119 721 171 745 q 223 769 297 769 q 371 769 423 745 q 474 721 506 672 q 529 636 540 570 q 550 503 550 376 q 550 208 531 140 q 513 73 468 37 l 530 -30 l 429 -123 z"},"w":{"x_min":0,"x_max":659,"ha":659,"o":"m 118 0 l 9 565 l 162 565 l 206 172 l 266 565 l 398 565 l 457 172 l 502 565 l 655 565 l 545 0 l 381 0 l 331 311 l 282 0 z"},"-":{"x_min":0,"x_max":389,"ha":389,"o":"m 42 207 l 42 358 l 347 358 l 347 207 z"},"E":{"x_min":0,"x_max":518,"ha":518,"o":"m 61 0 l 61 752 l 470 752 l 470 606 l 236 606 l 236 468 l 452 468 l 452 317 l 236 317 l 236 153 l 470 153 l 470 0 z"},"s":{"x_min":0,"x_max":439,"ha":439,"o":"m 19 179 l 160 179 q 163 135 177 115 q 192 94 221 94 q 245 94 260 108 q 275 122 275 144 q 275 163 264 176 q 254 188 218 205 q 210 209 193 217 q 108 256 74 291 q 50 314 38 346 q 25 377 25 411 q 25 488 77 534 q 130 580 219 580 q 312 580 362 536 q 412 492 412 409 l 412 399 l 274 399 q 273 442 261 460 q 249 478 222 478 q 198 478 184 465 q 170 452 170 431 q 170 394 241 363 q 250 358 256 356 q 353 312 385 271 q 418 230 418 164 q 418 79 365 32 q 312 -15 215 -15 q 122 -15 71 32 q 19 80 19 165 z"},">":{"x_min":0,"x_max":833,"ha":833,"o":"m 704 367 l 704 230 l 129 -8 l 129 138 l 520 298 l 129 458 l 129 605 z"},"l":{"x_min":0,"x_max":264,"ha":264,"o":"m 210 0 l 53 0 l 53 752 l 210 752 z"},"8":{"x_min":0,"x_max":536,"ha":536,"o":"m 211 552 q 211 511 227 486 q 243 461 269 461 q 295 461 312 486 q 328 511 328 552 q 328 593 313 615 q 297 637 269 637 q 241 637 226 615 q 211 593 211 552 z m 208 225 q 208 170 223 143 q 238 115 268 115 q 299 115 314 142 q 329 168 329 225 q 329 285 315 311 q 300 338 269 338 q 237 338 223 311 q 208 284 208 225 z m 138 402 q 98 429 77 468 q 57 507 57 558 q 57 651 113 704 q 169 757 268 757 q 367 757 423 704 q 479 651 479 558 q 479 507 459 468 q 438 429 398 402 q 443 374 467 325 q 490 277 490 211 q 490 104 431 44 q 373 -15 267 -15 q 163 -15 104 45 q 46 104 46 211 q 46 277 69 325 q 93 374 138 402 z"},"\\":{"x_min":0,"x_max":271,"ha":271,"o":"m 203 -93 l -35 770 l 48 770 l 286 -93 z"},"e":{"x_min":0,"x_max":498,"ha":498,"o":"m 305 198 l 453 198 l 453 184 q 453 85 401 35 q 350 -15 247 -15 q 195 -15 153 0 q 111 14 88 40 q 62 70 50 119 q 39 168 39 277 q 39 396 51 444 q 62 491 90 522 q 117 551 158 565 q 199 580 254 580 q 310 580 350 564 q 391 548 416 517 q 438 491 447 454 q 456 417 456 329 l 456 261 l 199 261 q 199 259 199 255 q 197 219 197 205 q 197 146 209 122 q 222 99 253 99 q 280 99 293 117 q 307 135 307 171 q 307 178 306 193 q 305 196 305 198 z m 203 359 l 309 359 q 309 360 309 362 q 311 383 311 392 q 311 434 298 453 q 284 473 256 473 q 227 473 215 454 q 202 435 202 390 q 202 378 202 371 q 203 364 203 359 z"},"b":{"x_min":0,"x_max":513,"ha":513,"o":"m 260 444 q 232 444 220 417 q 209 390 209 318 q 209 178 221 146 q 233 113 264 113 q 291 113 301 138 q 311 163 311 252 l 311 267 q 311 387 300 415 q 290 444 260 444 z m 54 752 l 212 752 l 212 513 q 233 546 260 562 q 288 578 323 578 q 407 578 439 518 q 471 458 471 266 q 471 177 466 130 q 461 83 451 61 q 434 23 402 3 q 371 -16 327 -16 q 287 -16 255 4 q 223 24 200 62 l 200 0 l 54 0 z"},"%":{"x_min":0,"x_max":826,"ha":826,"o":"m 579 182 q 579 125 589 102 q 599 80 624 80 q 649 80 659 103 q 670 125 670 182 q 670 239 659 262 q 649 285 624 285 q 599 285 589 262 q 579 240 579 182 z m 461 182 q 461 289 499 334 q 537 379 624 379 q 711 379 749 334 q 787 289 787 182 q 787 76 750 31 q 712 -14 624 -14 q 536 -14 499 31 q 461 76 461 182 z m 185 -14 l 546 757 l 641 757 l 281 -14 z m 157 561 q 157 503 167 481 q 177 458 202 458 q 227 458 237 481 q 247 503 247 561 q 247 618 237 641 q 227 663 202 663 q 177 663 167 641 q 157 618 157 561 z m 39 561 q 39 667 77 712 q 114 757 202 757 q 290 757 328 712 q 365 667 365 561 q 365 455 327 409 q 290 364 202 364 q 114 364 77 409 q 39 455 39 561 z"},"m":{"x_min":0,"x_max":732,"ha":732,"o":"m 53 0 l 53 565 l 193 565 l 193 498 q 218 539 250 557 q 281 576 323 576 q 362 576 390 556 q 418 536 433 498 q 458 538 490 557 q 522 576 564 576 q 627 576 656 533 q 685 489 685 394 l 685 0 l 534 0 l 534 358 q 534 418 526 434 q 517 450 496 450 q 471 450 456 424 q 442 398 442 353 l 442 0 l 294 0 l 294 358 q 294 418 286 434 q 277 450 256 450 q 231 450 217 424 q 202 398 202 353 l 202 0 z"},"#":{"x_min":0,"x_max":769,"ha":769,"o":"m 462 407 l 345 407 l 307 303 l 424 303 z m 458 718 l 395 539 l 506 539 l 569 718 l 710 718 l 647 539 l 772 539 l 723 407 l 600 407 l 563 303 l 689 303 l 640 171 l 516 171 l 452 -8 l 311 -8 l 375 171 l 264 171 l 200 -8 l 59 -8 l 123 171 l -3 171 l 46 303 l 170 303 l 206 407 l 80 407 l 128 539 l 254 539 l 317 718 z"},",":{"x_min":0,"x_max":269,"ha":269,"o":"m 49 0 l 49 172 l 221 172 l 221 36 q 221 -62 181 -107 q 142 -151 50 -157 l 50 -96 q 95 -92 119 -68 q 142 -43 142 0 z"},"n":{"x_min":0,"x_max":517,"ha":517,"o":"m 54 0 l 54 565 l 202 565 l 202 498 q 228 538 261 557 q 294 576 339 576 q 404 576 435 532 q 465 489 465 394 l 465 0 l 308 0 l 308 349 q 308 417 299 434 q 291 450 268 450 q 242 450 227 425 q 212 399 212 353 l 212 0 z"},"h":{"x_min":0,"x_max":505,"ha":505,"o":"m 50 0 l 50 752 l 207 752 l 207 505 q 227 541 259 558 q 290 576 334 576 q 399 576 430 532 q 460 489 460 394 l 460 0 l 303 0 l 303 349 q 303 417 294 434 q 286 450 263 450 q 237 450 222 425 q 207 399 207 353 l 207 0 z"},"z":{"x_min":0,"x_max":397,"ha":397,"o":"m 18 0 l 18 112 l 210 435 l 31 435 l 31 565 l 379 565 l 379 446 l 189 127 l 379 127 l 379 0 z"},"B":{"x_min":0,"x_max":580,"ha":580,"o":"m 237 458 l 248 458 q 300 458 324 480 q 349 501 349 547 q 349 586 325 608 q 300 629 255 629 q 248 629 244 629 q 240 628 237 628 z m 237 133 l 252 133 q 307 133 335 159 q 363 185 363 236 q 363 284 335 306 q 308 328 249 328 l 237 328 z m 61 0 l 61 752 l 250 752 q 336 752 373 745 q 411 738 438 722 q 479 698 499 658 q 520 618 520 563 q 520 514 501 476 q 481 438 439 402 q 489 376 515 333 q 540 289 540 228 q 540 178 523 133 q 506 88 475 56 q 446 25 403 13 q 360 0 270 0 z"},"K":{"x_min":0,"x_max":540,"ha":540,"o":"m 61 0 l 61 752 l 237 752 l 237 440 l 368 752 l 548 752 l 385 423 l 552 0 l 367 0 l 275 272 l 237 200 l 237 0 z"},"R":{"x_min":0,"x_max":586,"ha":586,"o":"m 235 439 q 239 439 246 438 q 253 438 257 438 q 312 438 334 460 q 357 482 357 534 q 357 583 334 603 q 312 623 257 623 q 253 623 246 623 q 239 622 235 622 z m 61 0 l 61 752 l 259 752 q 356 752 400 743 q 444 734 471 712 q 503 686 519 647 q 535 608 535 555 q 535 490 512 446 q 490 402 442 374 q 523 338 528 203 l 528 200 q 528 186 529 159 q 531 32 571 0 l 365 0 q 358 23 355 49 q 352 75 352 104 q 352 122 353 148 q 354 173 354 181 q 354 250 336 275 q 318 301 271 301 l 235 301 l 235 0 z"},"T":{"x_min":0,"x_max":488,"ha":488,"o":"m 153 0 l 153 606 l 12 606 l 12 752 l 477 752 l 477 606 l 329 606 l 329 0 z"},"P":{"x_min":0,"x_max":570,"ha":570,"o":"m 238 428 q 242 428 247 427 q 252 427 261 427 q 314 427 337 451 q 361 476 361 531 q 361 576 336 596 q 311 616 253 616 l 238 616 z m 61 0 l 61 752 l 234 752 q 330 752 375 744 q 421 735 452 716 q 494 690 515 640 q 537 590 537 521 q 537 407 477 347 q 417 288 300 288 l 238 288 l 238 0 z"},"|":{"x_min":0,"x_max":500,"ha":500,"o":"m 319 764 l 319 -236 l 182 -236 l 182 764 z"},"t":{"x_min":0,"x_max":330,"ha":330,"o":"m 307 2 q 278 -3 257 -6 q 235 -9 220 -9 q 173 -9 140 6 q 107 21 92 50 q 82 69 77 99 q 73 128 73 189 l 73 259 l 73 448 l 12 448 l 12 565 l 73 565 l 73 721 l 232 721 l 232 565 l 307 565 l 307 448 l 232 448 l 232 218 q 232 144 243 127 q 253 110 284 110 q 290 110 302 111 q 305 112 307 112 z"},"M":{"x_min":0,"x_max":798,"ha":798,"o":"m 61 0 l 61 752 l 307 752 l 374 432 q 375 430 382 372 q 390 314 398 256 q 404 299 414 364 q 423 428 425 435 l 491 752 l 735 752 l 735 0 l 569 0 l 584 581 l 465 0 l 331 0 l 212 581 l 227 0 z"},"g":{"x_min":0,"x_max":509,"ha":509,"o":"m 197 357 l 197 316 q 197 205 207 175 q 218 145 245 145 q 273 145 284 172 q 295 198 295 284 l 295 307 q 295 399 284 423 q 274 447 246 447 q 221 447 209 426 q 197 404 197 357 z m 453 565 l 453 59 q 453 -19 445 -56 q 437 -93 417 -119 q 390 -154 344 -172 q 298 -190 234 -190 q 135 -190 86 -149 q 38 -109 38 -25 l 194 -25 q 194 -57 205 -71 q 217 -86 241 -86 q 271 -86 283 -67 q 295 -47 295 9 l 295 75 q 264 47 236 34 q 208 21 178 21 q 137 21 105 43 q 74 65 56 107 q 47 129 42 170 q 38 211 38 277 q 38 340 41 389 q 44 438 50 469 q 59 517 94 547 q 130 578 176 578 q 213 578 246 560 q 278 541 309 502 l 309 565 z"},"j":{"x_min":0,"x_max":264,"ha":264,"o":"m 210 45 l 210 19 q 210 -66 202 -100 q 193 -134 173 -155 q 156 -172 128 -180 q 101 -189 62 -189 q 46 -189 32 -188 q 17 -187 3 -185 l 3 -68 q 5 -68 8 -68 q 12 -69 13 -69 q 36 -69 44 -54 q 53 -39 53 27 l 53 565 l 210 565 z m 53 621 l 53 758 l 210 758 l 210 621 z"},"i":{"x_min":0,"x_max":264,"ha":264,"o":"m 53 621 l 53 758 l 210 758 l 210 621 z m 53 0 l 53 565 l 210 565 l 210 0 z"},"y":{"x_min":0,"x_max":439,"ha":439,"o":"m 8 565 l 164 565 l 219 201 l 275 565 l 431 565 l 319 46 q 287 -104 247 -147 q 207 -190 119 -190 q 106 -190 91 -188 q 75 -187 54 -184 l 54 -66 q 55 -66 57 -66 q 74 -68 81 -68 q 108 -68 121 -58 q 134 -48 134 -27 q 134 -14 124 31 q 121 47 119 55 z"},"@":{"x_min":0,"x_max":1000,"ha":1000,"o":"m 606 445 l 630 485 l 748 485 l 672 179 q 671 173 670 170 q 670 167 670 164 q 670 152 676 146 q 682 140 693 140 q 755 140 806 209 q 856 279 856 371 q 856 486 771 557 q 686 628 545 628 q 476 628 415 611 q 354 593 305 559 q 230 506 189 428 q 148 349 148 257 q 148 113 245 28 q 343 -57 507 -57 q 585 -57 657 -34 q 729 -11 793 34 l 849 -44 q 769 -104 682 -132 q 595 -161 496 -161 q 404 -161 323 -135 q 241 -108 179 -58 q 106 0 70 78 q 34 156 34 254 q 34 340 61 416 q 88 493 141 555 q 214 642 318 688 q 421 734 543 734 q 731 734 849 633 q 966 533 966 373 q 966 290 933 219 q 899 149 837 101 q 803 74 762 60 q 721 46 677 46 q 624 46 595 64 q 567 83 563 121 q 534 82 501 64 q 467 47 422 47 q 338 47 296 90 q 254 133 254 218 q 254 338 324 419 q 394 499 498 499 q 534 499 562 485 q 589 472 606 445 z m 550 241 l 573 336 q 569 369 552 387 q 535 406 508 406 q 461 406 426 349 q 391 292 391 215 q 391 180 406 160 q 421 141 448 141 q 483 141 511 168 q 539 195 550 241 z"},".":{"x_min":0,"x_max":269,"ha":269,"o":"m 48 0 l 48 172 l 221 172 l 221 0 z"},"p":{"x_min":0,"x_max":512,"ha":512,"o":"m 262 118 q 293 118 304 153 q 316 188 316 316 q 316 393 305 421 q 293 449 266 449 q 235 449 223 417 q 211 384 211 244 q 211 172 222 145 q 234 118 262 118 z m 57 -190 l 57 565 l 202 565 l 202 501 q 224 539 257 559 q 289 578 329 578 q 362 578 390 566 q 417 555 435 533 q 456 507 465 463 q 473 418 473 297 q 473 104 441 44 q 409 -16 326 -16 q 291 -16 263 0 q 236 17 214 50 l 214 -190 z"},"X":{"x_min":0,"x_max":531,"ha":531,"o":"m 7 0 l 168 370 l 18 752 l 201 752 l 271 529 l 340 752 l 527 752 l 373 370 l 531 0 l 342 0 l 271 217 l 195 0 z"},"*":{"x_min":0,"x_max":500,"ha":500,"o":"m 249 468 l 164 347 l 80 405 l 175 523 l 38 561 l 70 660 l 200 613 l 200 752 l 298 752 l 298 613 l 428 659 l 462 559 l 324 523 l 418 406 l 333 345 z"},"Y":{"x_min":0,"x_max":513,"ha":513,"o":"m 166 0 l 166 319 l -7 752 l 182 752 l 255 514 l 328 752 l 519 752 l 346 319 l 346 0 z"},"c":{"x_min":0,"x_max":494,"ha":494,"o":"m 295 222 l 450 222 q 450 218 451 211 q 451 204 451 200 q 451 92 401 38 q 351 -15 248 -15 q 132 -15 85 51 q 38 116 38 282 q 38 448 85 514 q 133 580 248 580 q 352 580 400 527 q 449 474 449 362 l 449 352 l 297 352 l 297 368 q 297 419 286 440 q 275 462 249 462 q 219 462 209 433 q 198 404 198 282 q 198 165 209 133 q 219 101 248 101 q 273 101 284 124 q 296 146 296 196 q 296 200 295 208 q 295 217 295 222 z"},"!":{"x_min":0,"x_max":331,"ha":331,"o":"m 122 248 l 78 553 l 78 752 l 253 752 l 253 553 l 213 248 z m 81 0 l 81 172 l 253 172 l 253 0 z"},"/":{"x_min":0,"x_max":271,"ha":271,"o":"m 48 -93 l -35 -93 l 203 770 l 286 770 z"},"[":{"x_min":0,"x_max":336,"ha":336,"o":"m 308 -189 l 85 -189 l 85 752 l 308 752 l 308 650 l 227 650 l 227 -87 l 308 -87 z"},"6":{"x_min":0,"x_max":536,"ha":536,"o":"m 217 458 q 244 476 271 484 q 299 493 329 493 q 412 493 453 434 q 494 375 494 256 q 494 120 439 52 q 383 -15 271 -15 q 217 -15 175 0 q 133 16 103 48 q 70 83 56 144 q 43 204 43 363 q 43 494 50 554 q 57 615 74 652 q 98 703 149 730 q 201 757 275 757 q 374 757 428 707 q 483 657 483 567 l 483 562 l 323 562 q 322 598 310 615 q 297 633 272 633 q 242 633 229 606 q 216 579 216 511 q 216 490 216 479 q 216 468 217 458 z m 212 238 q 212 169 226 142 q 239 114 272 114 q 301 114 312 141 q 324 167 324 241 q 324 313 311 340 q 298 366 266 366 q 236 366 224 339 q 212 311 212 238 z"},"r":{"x_min":0,"x_max":346,"ha":346,"o":"m 50 0 l 50 565 l 195 565 l 195 486 q 221 528 252 550 q 283 572 322 576 l 322 397 q 309 400 297 401 q 285 403 275 403 q 237 403 222 376 q 207 349 207 271 l 207 0 z"},"2":{"x_min":0,"x_max":536,"ha":536,"o":"m 35 0 l 35 12 q 35 55 45 97 q 54 139 74 181 q 115 270 202 357 q 214 370 220 376 l 225 381 q 320 481 320 556 q 320 591 306 609 q 292 628 267 628 q 231 628 215 598 q 198 567 198 501 l 198 488 l 42 488 l 42 508 q 42 629 101 693 q 161 758 272 758 q 373 758 429 702 q 486 646 486 548 q 486 490 461 437 q 437 385 385 331 q 374 319 351 297 q 258 207 235 148 l 484 148 l 484 0 z"},"{":{"x_min":0,"x_max":500,"ha":500,"o":"m 442 582 q 438 582 431 583 q 424 583 421 583 q 378 583 364 568 q 349 554 349 506 l 349 389 q 349 324 326 297 q 303 270 243 259 q 304 248 326 221 q 349 194 349 130 l 349 12 q 349 -35 364 -49 q 378 -64 420 -64 q 423 -64 431 -63 q 438 -63 442 -63 l 442 -202 l 403 -202 q 335 -202 300 -197 q 264 -192 241 -180 q 212 -166 200 -139 q 188 -112 188 -48 l 188 78 q 188 140 165 166 q 143 191 88 191 q 85 191 80 190 q 74 190 71 190 l 71 328 q 74 328 80 328 q 85 327 88 327 q 143 327 165 353 q 188 378 188 440 l 188 566 q 188 631 200 658 q 212 685 241 699 q 265 711 300 716 q 335 721 403 721 l 442 721 z"},"9":{"x_min":0,"x_max":536,"ha":536,"o":"m 315 284 q 287 266 260 258 q 232 249 203 249 q 120 249 80 307 q 39 365 39 484 q 39 622 94 689 q 149 757 261 757 q 315 757 357 741 q 399 726 429 694 q 462 659 475 597 q 489 535 489 379 q 489 243 482 184 q 475 126 458 90 q 435 39 383 12 q 331 -15 257 -15 q 158 -15 103 36 q 49 86 49 180 l 209 180 q 210 145 223 127 q 235 109 260 109 q 291 109 303 136 q 316 163 316 231 q 316 251 316 263 q 315 274 315 284 z m 319 504 q 319 572 305 600 q 292 628 260 628 q 231 628 220 600 q 208 573 208 501 q 208 432 221 404 q 233 376 264 376 q 295 376 307 402 q 319 428 319 504 z"}," ":{"x_min":0,"x_max":268,"ha":268,"o":""},"I":{"x_min":0,"x_max":298,"ha":298,"o":"m 61 0 l 61 752 l 237 752 l 237 0 z"},"H":{"x_min":0,"x_max":611,"ha":611,"o":"m 61 0 l 61 752 l 237 752 l 237 468 l 378 468 l 378 752 l 550 752 l 550 0 l 378 0 l 378 312 l 237 312 l 237 0 z"},"4":{"x_min":0,"x_max":536,"ha":536,"o":"m 298 274 l 298 575 l 161 274 z m 279 0 l 279 145 l 31 145 l 31 287 l 268 743 l 440 743 l 440 274 l 505 274 l 505 145 l 440 145 l 440 0 z"},"~":{"x_min":0,"x_max":833,"ha":833,"o":"m 747 265 q 697 231 653 216 q 609 200 566 200 q 540 200 511 206 q 483 211 436 228 q 375 249 341 255 q 307 262 274 262 q 233 262 188 244 q 143 225 87 185 l 87 331 q 145 368 193 384 q 240 401 286 401 q 314 401 346 395 q 378 389 422 375 q 433 372 453 364 q 527 338 568 338 q 610 338 653 356 q 697 374 747 411 z"},"D":{"x_min":0,"x_max":583,"ha":583,"o":"m 238 612 l 238 137 q 243 136 248 136 q 253 136 263 136 q 292 136 310 144 q 329 152 341 169 q 351 183 354 222 q 358 261 358 375 l 358 409 q 358 503 354 536 q 351 569 342 581 q 332 597 312 605 q 292 613 261 613 q 252 613 247 613 q 242 612 238 612 z m 61 0 l 61 752 l 255 752 q 361 752 413 734 q 464 715 494 671 q 518 636 527 581 q 537 526 537 376 q 537 226 527 171 q 518 116 494 81 q 464 37 413 18 q 361 0 255 0 z"},"^":{"x_min":0,"x_max":1000,"ha":1000,"o":"m 582 714 l 798 438 l 650 438 l 500 589 l 349 438 l 201 438 l 417 714 z"},"0":{"x_min":0,"x_max":536,"ha":536,"o":"m 209 371 l 209 316 q 209 187 221 153 q 234 119 268 119 q 302 119 314 153 q 327 187 327 316 l 327 371 l 327 438 q 327 559 314 591 q 302 624 268 624 q 234 624 221 590 q 209 556 209 426 z m 40 371 q 40 512 48 573 q 57 634 77 666 q 105 710 155 733 q 204 757 268 757 q 333 757 382 733 q 431 709 459 665 q 479 633 488 575 q 496 517 496 404 q 496 281 492 219 q 488 158 478 119 q 463 59 406 22 q 348 -15 268 -15 q 203 -15 153 9 q 103 34 74 80 q 56 110 48 173 q 40 236 40 371 z"},"F":{"x_min":0,"x_max":513,"ha":513,"o":"m 61 0 l 61 752 l 471 752 l 471 606 l 238 606 l 238 469 l 454 469 l 454 318 l 238 318 l 238 0 z"},"`":{"x_min":0,"x_max":500,"ha":500,"o":"m 329 625 l 259 625 l 88 764 l 232 764 z"},"k":{"x_min":0,"x_max":493,"ha":493,"o":"m 53 0 l 53 752 l 208 752 l 208 380 l 332 565 l 490 565 l 325 349 l 493 0 l 335 0 l 234 230 l 208 194 l 208 0 z"},"u":{"x_min":0,"x_max":517,"ha":517,"o":"m 461 565 l 461 0 l 313 0 l 313 67 q 287 26 254 8 q 221 -11 177 -11 q 111 -11 81 33 q 50 77 50 171 l 50 565 l 208 565 l 208 216 q 208 148 217 132 q 226 115 248 115 q 274 115 289 141 q 304 166 304 212 l 304 565 z"},"]":{"x_min":0,"x_max":336,"ha":336,"o":"m 23 -189 l 23 -87 l 104 -87 l 104 650 l 23 650 l 23 752 l 246 752 l 246 -189 z"},"U":{"x_min":0,"x_max":596,"ha":596,"o":"m 61 752 l 239 752 l 239 281 q 239 174 252 148 q 266 123 300 123 q 334 123 348 149 q 361 176 361 281 l 361 752 l 535 752 l 535 272 q 535 190 528 150 q 521 110 505 80 q 478 29 427 6 q 376 -18 295 -18 q 220 -18 172 4 q 125 26 97 75 q 77 110 69 164 q 61 218 61 347 z"},"o":{"x_min":0,"x_max":497,"ha":497,"o":"m 198 282 q 198 163 209 133 q 219 103 248 103 q 277 103 287 132 q 298 161 298 282 q 298 404 287 433 q 277 462 248 462 q 219 462 209 432 q 198 401 198 282 z m 38 282 q 38 447 85 514 q 133 580 248 580 q 363 580 411 514 q 458 448 458 282 q 458 117 411 51 q 363 -15 248 -15 q 132 -15 85 51 q 38 116 38 282 z"},"N":{"x_min":0,"x_max":592,"ha":592,"o":"m 61 0 l 61 752 l 244 752 l 390 288 q 381 405 377 490 q 373 575 373 634 l 373 752 l 530 752 l 530 0 l 346 0 l 199 478 q 209 385 214 297 q 219 209 219 127 l 219 0 z"},"+":{"x_min":0,"x_max":833,"ha":833,"o":"m 485 596 l 485 365 l 709 365 l 709 232 l 485 232 l 485 0 l 348 0 l 348 232 l 124 232 l 124 365 l 348 365 l 348 596 z"},"G":{"x_min":0,"x_max":576,"ha":576,"o":"m 523 412 l 523 0 l 402 0 l 394 47 q 368 17 336 2 q 304 -13 263 -13 q 217 -13 178 4 q 140 21 111 53 q 75 93 61 160 q 46 227 46 386 q 46 500 56 568 q 66 637 88 671 q 119 720 171 745 q 222 770 293 770 q 404 770 460 710 q 516 649 516 530 q 516 525 516 516 q 515 507 515 502 l 348 502 l 348 511 q 348 576 334 604 q 320 632 289 632 q 252 632 238 598 q 224 563 224 438 l 224 364 l 224 312 q 224 187 237 154 q 250 121 286 121 q 322 121 338 150 q 354 179 354 243 q 354 258 354 266 q 354 273 353 281 l 284 281 l 284 412 z"},"q":{"x_min":0,"x_max":513,"ha":513,"o":"m 249 118 q 277 118 289 145 q 300 172 300 244 q 300 384 288 417 q 276 449 245 449 q 219 449 208 424 q 198 399 198 323 l 198 294 q 198 177 209 148 q 220 118 249 118 z m 455 -190 l 297 -190 l 297 50 q 275 16 248 0 q 221 -16 186 -16 q 103 -16 70 45 q 38 105 38 297 q 38 386 43 432 q 47 479 58 501 q 75 539 106 559 q 138 578 182 578 q 222 578 254 559 q 287 539 309 501 l 309 565 l 455 565 z"},"d":{"x_min":0,"x_max":513,"ha":513,"o":"m 254 444 q 224 444 213 413 q 202 382 202 277 q 202 167 212 140 q 223 113 250 113 q 281 113 293 146 q 305 178 305 318 q 305 390 294 417 q 282 444 254 444 z m 459 752 l 459 0 l 314 0 l 314 62 q 292 24 259 4 q 227 -16 187 -16 q 154 -16 127 -4 q 100 8 81 30 q 60 56 52 100 q 43 145 43 266 q 43 458 75 518 q 107 578 191 578 q 227 578 253 562 q 280 546 302 513 l 302 752 z"},"1":{"x_min":0,"x_max":536,"ha":536,"o":"m 215 0 l 215 519 l 65 519 l 65 634 l 73 634 q 154 634 203 665 q 251 695 267 757 l 383 757 l 383 0 z"},"5":{"x_min":0,"x_max":536,"ha":536,"o":"m 47 231 l 203 231 q 205 167 218 142 q 232 116 264 116 q 298 116 312 143 q 327 170 327 235 q 327 328 312 358 q 297 389 259 389 q 236 389 220 376 q 205 363 197 336 l 57 336 l 71 744 l 459 744 l 459 609 l 199 609 l 194 472 q 224 492 255 502 q 286 512 320 512 q 406 512 447 449 q 489 385 489 256 q 489 120 433 51 q 377 -17 266 -17 q 160 -17 103 43 q 47 104 47 217 z"}}}
